<svg width="23" height="23" viewBox="0 0 23 23" fill="none" xmlns="http://www.w3.org/2000/svg">
<path opacity="0.6" fill-rule="evenodd" clip-rule="evenodd" d="M6.23632 4.77868C5.75375 4.78694 5.36839 5.22157 5.37499 5.75012V11.3391C5.35938 11.4426 5.35938 11.5482 5.37499 11.6517V17.2501C5.37053 17.5957 5.53632 17.9172 5.80888 18.0914C6.08144 18.2657 6.41855 18.2657 6.69111 18.0914C6.96367 17.9172 7.12946 17.5957 7.12499 17.2501V12.4585H15.875V17.2501C15.8705 17.5957 16.0363 17.9172 16.3089 18.0914C16.5814 18.2657 16.9185 18.2657 17.1911 18.0914C17.4637 17.9172 17.6295 17.5957 17.625 17.2501V11.6611C17.6406 11.5576 17.6406 11.452 17.625 11.3485V5.75012C17.6282 5.49108 17.5356 5.24164 17.3682 5.05863C17.2008 4.87562 16.9728 4.77464 16.7363 4.77868C16.2537 4.78694 15.8684 5.22157 15.875 5.75012V10.5418H7.12499V5.75012C7.12823 5.49108 7.03559 5.24164 6.86817 5.05863C6.70076 4.87562 6.47283 4.77464 6.23632 4.77868Z" fill="#254474"/>
<path fill-rule="evenodd" clip-rule="evenodd" d="M3.61134 6.69543C3.12876 6.70369 2.7434 7.13831 2.75001 7.66687V10.5419H1.87501C1.55945 10.537 1.26594 10.7186 1.10686 11.0171C0.947779 11.3156 0.947779 11.6848 1.10686 11.9833C1.26594 12.2818 1.55945 12.4634 1.87501 12.4585H2.75001V15.3335C2.74555 15.6791 2.91134 16.0006 3.1839 16.1748C3.45646 16.3491 3.79356 16.3491 4.06612 16.1748C4.33868 16.0006 4.50447 15.6791 4.50001 15.3335V11.6612C4.51563 11.5577 4.51563 11.4521 4.50001 11.3486V7.66687C4.50325 7.40783 4.41061 7.15839 4.24319 6.97538C4.07577 6.79237 3.84785 6.69138 3.61134 6.69543ZM19.3613 6.69543C18.8788 6.70369 18.4934 7.13831 18.5 7.66687V11.3392C18.4844 11.4427 18.4844 11.5483 18.5 11.6518V15.3335C18.4955 15.6791 18.6613 16.0006 18.9339 16.1748C19.2065 16.3491 19.5436 16.3491 19.8161 16.1748C20.0887 16.0006 20.2545 15.6791 20.25 15.3335V12.4585H21.125C21.4406 12.4634 21.7341 12.2818 21.8932 11.9833C22.0522 11.6848 22.0522 11.3156 21.8932 11.0171C21.7341 10.7186 21.4406 10.537 21.125 10.5419H20.25V7.66687C20.2533 7.40783 20.1606 7.15839 19.9932 6.97538C19.8258 6.79237 19.5978 6.69138 19.3613 6.69543Z" fill="#254474"/>
</svg>
