<svg width="21" height="18" viewBox="0 0 21 18" fill="none" xmlns="http://www.w3.org/2000/svg">
<path d="M9.66699 15.6665C10.1271 15.6667 10.5 16.0403 10.5 16.5005C10.4997 16.9604 10.1269 17.3333 9.66699 17.3335H4.33301C3.87308 17.3333 3.50026 16.9604 3.5 16.5005C3.5 16.0403 3.87292 15.6667 4.33301 15.6665H9.66699ZM16.667 12.3335C17.127 12.3336 17.4999 12.7064 17.5 13.1665C17.5 13.6266 17.1271 14.0003 16.667 14.0005H4.33301C3.87292 14.0003 3.5 13.6266 3.5 13.1665C3.50009 12.7064 3.87298 12.3336 4.33301 12.3335H16.667ZM7.23438 0.707496C8.12474 0.0715222 9.33959 0.0394599 10.2656 0.627418L13.6035 2.74656C14.0347 3.02031 14.5414 3.16645 15.0596 3.16648H16.625C18.558 3.16648 20.125 4.65952 20.125 6.50047V6.91648C20.125 8.98754 18.3621 10.6665 16.1875 10.6665H5.25C2.83393 10.6665 0.875287 8.80142 0.875 6.50047V2.33347C0.875 1.413 1.6585 0.666481 2.625 0.666481C3.00365 0.666481 3.37189 0.784095 3.6748 1.00047L4.02539 1.25047C4.75111 1.76851 5.74889 1.76851 6.47461 1.25047L7.23438 0.707496ZM9.29492 2.01414C8.98624 1.81815 8.58097 1.82851 8.28418 2.0405L7.52539 2.58347C6.17725 3.54643 4.32275 3.54643 2.97461 2.58347L2.625 2.33347V6.50047C2.62529 7.88095 3.80043 9.00047 5.25 9.00047H16.1875C17.3956 9.00047 18.375 8.06706 18.375 6.91648V6.50047C18.375 5.57999 17.5915 4.83347 16.625 4.83347H15.0596C14.1959 4.83345 13.3514 4.58955 12.6328 4.13328L9.29492 2.01414Z" fill="#8F70F6"/>
</svg>
