<svg width="4487" height="402" viewBox="0 0 4487 402" fill="none" xmlns="http://www.w3.org/2000/svg">
<g style="mix-blend-mode:multiply">
<path d="M0.799918 21.5665C20.72 25.2902 41.1723 30.5132 62.5689 37.0993C98.3695 48.119 134.17 59.1388 169.971 61.6218C202.818 63.8999 240.252 52.8545 284.414 39.824C340.117 23.3881 406.525 3.79369 487.934 3.79369C546.071 3.79369 595.937 17.1186 643.957 29.9501C716.489 49.3313 784.807 67.587 871.052 37.0993C1014.4 -13.5731 1104.31 -12.1738 1222.9 43.2428C1341.48 98.6593 1438.11 88.3081 1516.98 63.0897C1524.62 60.6472 1532.19 58.0876 1539.69 55.5462C1569.63 45.4125 1598.71 35.57 1628.4 34.6098C1670.02 33.0718 1711.64 47.0462 1753.26 61.0206C1785.92 71.9866 1818.58 82.9526 1851.24 86.4226C1892.54 90.8114 1933.85 83.1034 1975.15 75.3954C2008.13 69.2426 2041.1 63.0897 2074.07 63.0897C2108.38 63.0897 2142.69 69.7524 2177 76.4152C2216.97 84.1761 2256.94 91.9371 2296.91 89.1677C2332.71 86.6869 2368.51 75.6771 2404.31 64.6672C2442.78 52.8341 2481.26 41.0011 2519.74 39.7568C2576.56 37.657 2625.61 49.1436 2674.55 60.6022C2734.72 74.6925 2794.72 88.7404 2868.74 77.4324C2908.75 71.3214 2946.99 61.4455 2984.73 51.701C3074.75 28.4561 3161.88 5.95923 3263.04 37.0993C3298.84 48.119 3334.64 59.1388 3370.45 61.6218C3410.41 64.3937 3450.38 56.6257 3490.35 48.8578C3562.25 34.8818 3620.13 34.3771 3692.2 47.8372C3733.5 55.552 3774.81 63.2669 3816.11 58.8743C3848.77 55.4011 3881.43 44.4254 3914.09 33.4496C4003.84 3.28627 4062.4 3.18597 4150.37 35.5204C4158.47 38.4976 4166.87 41.8265 4175.46 45.2246C4206.24 57.4081 4239.26 70.4806 4268.3 71.4205C4488.72 71.4205 4488.66 76.0867 4485.52 298.928C4485.1 329.029 4484.62 363.111 4484.62 401.7L0.799918 401.7V21.5665Z" fill="#B6D2F4"/>
</g>
</svg>
