<svg width="4487" height="403" viewBox="0 0 4487 403" fill="none" xmlns="http://www.w3.org/2000/svg">
<g style="mix-blend-mode:multiply">
<path d="M0.656363 22.0792C20.5764 25.8029 41.0287 31.0259 62.4253 37.612C98.2259 48.6317 134.027 59.6515 169.828 62.1345C202.674 64.4126 240.108 53.3672 284.27 40.3367C339.974 23.9007 406.382 4.30639 487.79 4.30639C545.927 4.30639 595.793 17.6313 643.813 30.4628C716.345 49.844 784.664 68.0997 870.909 37.612C1014.25 -13.0604 1104.17 -11.6611 1222.75 43.7554C1341.34 99.1719 1437.97 88.8208 1516.84 63.6024C1524.48 61.1599 1532.04 58.6003 1539.55 56.0589C1569.49 45.9252 1598.57 36.0827 1628.26 35.1225C1669.88 33.5845 1711.5 47.5589 1753.12 61.5333C1785.78 72.4993 1818.43 83.4653 1851.09 86.9353C1892.4 91.324 1933.71 83.6161 1975.01 75.9081C2007.98 69.7553 2040.96 63.6024 2073.93 63.6024C2108.24 63.6024 2142.55 70.2651 2176.86 76.9279C2216.83 84.6888 2256.79 92.4498 2296.76 89.6804C2332.56 87.1996 2368.36 76.1898 2404.16 65.1799C2442.64 53.3468 2481.12 41.5137 2519.6 40.2695C2576.41 38.1697 2625.47 49.6563 2674.41 61.1149C2734.58 75.2052 2794.58 89.2531 2868.6 77.9451C2908.6 71.8341 2946.85 61.9582 2984.59 52.2137C3074.61 28.9688 3161.73 6.47193 3262.9 37.612C3298.7 48.6317 3334.5 59.6515 3370.3 62.1345C3410.27 64.9064 3450.24 57.1384 3490.2 49.3705C3562.11 35.3945 3619.99 34.8898 3692.05 48.3498C3733.36 56.0647 3774.66 63.7796 3815.97 59.387C3848.63 55.9138 3881.29 44.9381 3913.95 33.9623C4003.7 3.79896 4062.26 3.69866 4150.22 36.0331C4158.32 39.0103 4166.73 42.3392 4175.32 45.7373C4206.09 57.9208 4239.12 70.9933 4268.16 71.9332C4488.58 71.9332 4488.51 76.5994 4485.38 299.441C4484.95 329.542 4484.47 363.624 4484.47 402.213L0.656363 402.212V22.0792Z" fill="#90AEF4"/>
</g>
</svg>
