<svg width="4486" height="403" viewBox="0 0 4486 403" fill="none" xmlns="http://www.w3.org/2000/svg">
<g style="mix-blend-mode:multiply">
<path d="M4485.64 22.0792C4465.72 25.8029 4445.27 31.0259 4423.87 37.612C4388.07 48.6317 4352.27 59.6515 4316.47 62.1345C4283.63 64.4126 4246.19 53.3672 4202.03 40.3367C4146.33 23.9007 4079.92 4.30639 3998.51 4.30639C3940.37 4.30639 3890.51 17.6313 3842.49 30.4628C3769.95 49.844 3701.64 68.0997 3615.39 37.612C3472.05 -13.0604 3382.13 -11.6611 3263.55 43.7554C3144.96 99.1719 3048.33 88.8208 2969.46 63.6024C2961.82 61.1599 2954.26 58.6003 2946.75 56.0589C2916.81 45.9252 2887.73 36.0827 2858.04 35.1225C2816.42 33.5845 2774.8 47.5589 2733.18 61.5333C2700.52 72.4993 2667.87 83.4653 2635.21 86.9353C2593.9 91.324 2552.59 83.6161 2511.29 75.9081C2478.32 69.7553 2445.34 63.6024 2412.37 63.6024C2378.06 63.6024 2343.75 70.2651 2309.44 76.9279C2269.47 84.6888 2229.5 92.4498 2189.54 89.6804C2153.74 87.1996 2117.94 76.1898 2082.14 65.1799C2043.66 53.3468 2005.18 41.5137 1966.7 40.2695C1909.89 38.1697 1860.83 49.6563 1811.89 61.1149C1751.72 75.2052 1691.72 89.2531 1617.7 77.9451C1577.7 71.8341 1539.45 61.9582 1501.71 52.2137C1411.69 28.9688 1324.57 6.47193 1223.4 37.612C1187.6 48.6317 1151.8 59.6515 1116 62.1345C1076.03 64.9064 1036.06 57.1384 996.097 49.3705C924.189 35.3945 866.312 34.8898 794.247 48.3498C752.941 56.0647 711.635 63.7796 670.329 59.387C637.67 55.9138 605.011 44.9381 572.352 33.9623C482.599 3.79896 424.043 3.69866 336.078 36.0331C327.978 39.0103 319.569 42.3392 310.985 45.7373C280.208 57.9208 247.184 70.9933 218.145 71.9332C-2.28063 71.9332 -2.21493 76.5994 0.922325 299.441C1.3461 329.542 1.82592 363.624 1.82592 402.213L4485.64 402.212V22.0792Z" fill="#B1C7EB"/>
</g>
</svg>
