<svg width="4487" height="403" viewBox="0 0 4487 403" fill="none" xmlns="http://www.w3.org/2000/svg">
<g style="mix-blend-mode:multiply">
<path d="M4486.34 22.0792C4466.42 25.8029 4445.97 31.0259 4424.58 37.612C4388.78 48.6317 4352.97 59.6515 4317.17 62.1345C4284.33 64.4126 4246.89 53.3672 4202.73 40.3367C4147.03 23.9007 4080.62 4.30639 3999.21 4.30639C3941.07 4.30639 3891.21 17.6313 3843.19 30.4628C3770.66 49.844 3702.34 68.0997 3616.09 37.612C3472.75 -13.0604 3382.83 -11.6611 3264.25 43.7554C3145.66 99.1719 3049.04 88.8208 2970.16 63.6024C2962.52 61.1599 2954.96 58.6003 2947.45 56.0589C2917.51 45.9252 2888.44 36.0827 2858.74 35.1225C2817.12 33.5845 2775.5 47.5589 2733.89 61.5333C2701.23 72.4993 2668.57 83.4653 2635.91 86.9353C2594.6 91.324 2553.3 83.6161 2511.99 75.9081C2479.02 69.7553 2446.05 63.6024 2413.07 63.6024C2378.76 63.6024 2344.45 70.2651 2310.14 76.9279C2270.17 84.6888 2230.21 92.4498 2190.24 89.6804C2154.44 87.1996 2118.64 76.1898 2082.84 65.1799C2044.36 53.3468 2005.88 41.5137 1967.41 40.2695C1910.59 38.1697 1861.53 49.6563 1812.6 61.1149C1752.42 75.2052 1692.43 89.2531 1618.4 77.9451C1578.4 71.8341 1540.15 61.9582 1502.41 52.2137C1412.39 28.9688 1325.27 6.47193 1224.1 37.612C1188.3 48.6317 1152.5 59.6515 1116.7 62.1345C1076.73 64.9064 1036.77 57.1384 996.798 49.3705C924.89 35.3945 867.014 34.8898 794.948 48.3498C753.642 56.0647 712.336 63.7796 671.03 59.387C638.371 55.9138 605.712 44.9381 573.053 33.9623C483.301 3.79896 424.744 3.69866 336.779 36.0331C328.679 39.0103 320.27 42.3392 311.686 45.7373C280.909 57.9208 247.885 70.9933 218.846 71.9332C-1.57945 71.9332 -1.51376 76.5994 1.6235 299.441C2.04727 329.542 2.52709 363.624 2.52709 402.213L4486.34 402.212V22.0792Z" fill="#C2E4FF"/>
</g>
</svg>
