<svg width="120" height="120" viewBox="0 0 120 120" fill="none" xmlns="http://www.w3.org/2000/svg">
<path fill-rule="evenodd" clip-rule="evenodd" d="M14 60C14 34.5949 34.5949 14 60 14C85.4051 14 106 34.5949 106 60C106 85.4051 85.4051 106 60 106C34.5949 106 14 85.4051 14 60ZM94 60C94 41.2223 78.7777 26 60 26C41.2223 26 26 41.2223 26 60C26 78.7777 41.2223 94 60 94C78.7777 94 94 78.7777 94 60Z" fill="url(#paint0_linear_219_448)"/>
<path d="M60 38C72.1503 38 82 47.8497 82 60C82 63.3137 79.3137 66 76 66C72.7616 66 70.1224 63.4344 70.0041 60.2249L70 60C70 54.4772 65.5228 50 60 50C54.4772 50 50 54.4772 50 60C50 65.4292 54.3267 69.8479 59.7201 69.9962L60 70C63.3137 70 66 72.6863 66 76C66 79.3137 63.3137 82 60 82C47.8497 82 38 72.1503 38 60C38 47.8497 47.8497 38 60 38Z" fill="url(#paint1_linear_219_448)"/>
<defs>
<linearGradient id="paint0_linear_219_448" x1="-80.6202" y1="49.3192" x2="45.7634" y2="168.591" gradientUnits="userSpaceOnUse">
<stop stop-color="#136CF1"/>
<stop offset="1" stop-color="#2447A4"/>
</linearGradient>
<linearGradient id="paint1_linear_219_448" x1="17.1693" y1="58.8307" x2="58.8307" y2="100.492" gradientUnits="userSpaceOnUse">
<stop stop-color="#5041AB"/>
<stop offset="1" stop-color="#5041AB" stop-opacity="0.4"/>
</linearGradient>
</defs>
</svg>
