<svg width="4236" height="402" viewBox="0 0 4236 402" fill="none" xmlns="http://www.w3.org/2000/svg">
<g style="mix-blend-mode:multiply">
<path d="M-250.2 21.5666C-230.28 25.2904 -209.828 30.5133 -188.431 37.0994C-152.631 48.1191 -116.83 59.1389 -81.0289 61.6219C-48.1823 63.9 -10.7483 52.8547 33.4138 39.8241C89.1173 23.3882 155.525 3.79381 236.934 3.79381C295.071 3.79381 344.937 17.1187 392.957 29.9502C465.489 49.3315 533.807 67.5871 620.052 37.0994C763.396 -13.573 853.312 -12.1736 971.896 43.2429C1090.48 98.6594 1187.11 88.3082 1265.98 63.0898C1273.62 60.6474 1281.19 58.0877 1288.69 55.5463C1318.63 45.4126 1347.71 35.5701 1377.4 34.61C1419.02 33.0719 1460.64 47.0463 1502.26 61.0207C1534.92 71.9867 1567.58 82.9527 1600.24 86.4227C1641.54 90.8115 1682.85 83.1035 1724.15 75.3955C1757.13 69.2427 1790.1 63.0898 1823.07 63.0898C1857.38 63.0898 1891.69 69.7526 1926 76.4153C1965.97 84.1763 2005.94 91.9372 2045.91 89.1678C2081.71 86.6871 2117.51 75.6772 2153.31 64.6673C2191.78 52.8342 2230.26 41.0012 2268.74 39.7569C2325.56 37.6572 2374.61 49.1437 2423.55 60.6023C2483.72 74.6926 2543.72 88.7406 2617.74 77.4326C2657.75 71.3215 2695.99 61.4456 2733.73 51.7012C2823.75 28.4562 2910.88 5.95936 3012.04 37.0994C3047.84 48.1191 3083.64 59.1389 3119.45 61.6219C3159.41 64.3938 3199.38 56.6259 3239.35 48.8579C3311.25 34.882 3369.13 34.3772 3441.2 47.8373C3482.5 55.5522 3523.81 63.267 3565.11 58.8744C3597.77 55.4013 3630.43 44.4255 3663.09 33.4497C3752.84 3.28639 3811.4 3.18609 3899.37 35.5205C3907.47 38.4977 3915.87 41.8267 3924.46 45.2248C3955.24 57.4082 3988.26 70.4807 4017.3 71.4206C4237.72 71.4206 4237.66 76.0868 4234.52 298.928C4234.1 329.029 4233.62 363.111 4233.62 401.7L-250.2 401.7V21.5666Z" fill="#16B8F8"/>
</g>
</svg>
